<svg id="Layer_1" data-name="Layer 1" xmlns="http://www.w3.org/2000/svg" viewBox="0 0 106 108"><defs><style>.cls-1{fill:#fff;}</style></defs><title>brochure-download</title><path class="cls-1" d="M90.39,20.19A2.21,2.21,0,0,0,87.9,18c-3.35.23-6.7.49-10.05.74l-5.35.39v-.72c0-2.86,0-5.72,0-8.57a5.56,5.56,0,0,0,0-.82A2.18,2.18,0,0,0,69.9,7.11Q64,7.92,58,8.7L39.43,11.15Q28.66,12.58,17.9,14a2.31,2.31,0,0,0-2.3,2.6V83.79c0,1.91,1,2.82,3,2.57L37,83.89c.95-.13,1.89-.24,2.91-.36v.76c0,2.34,0,4.67,0,7a3.2,3.2,0,0,0,.1.93c.37,1.22,1.31,1.69,2.92,1.56q6.18-.5,12.37-1l12.82-.94,14.58-1.1,5.4-.4a2.23,2.23,0,0,0,2.21-1.57,3.85,3.85,0,0,0,.12-1.18q0-33.47,0-66.94C90.4,20.52,90.4,20.35,90.39,20.19Zm-51.47,59L25.06,81l-5,.66V18.17l48-6.36v.77q0,31,0,62c0,.6-.19.76-.77.83-4.89.62-9.78,1.29-14.67,1.94Zm47,6.91L53.3,88.55l-.06-.14,2-1,15.93-8.1a2.24,2.24,0,0,0,1.27-2c0-.27,0-.54,0-.82V23.6l13.41-1Z"/><path class="cls-1" d="M57.73,41.79l-7.88.94V24.2L39.28,25.46V44L31.47,45c4.38,3.86,8.77,7.73,13.12,11.58Z"/><path class="cls-1" d="M26.07,69.44l37-4.44V59.74l-37,4.43Z"/></svg>